<svg xmlns="http://www.w3.org/2000/svg" viewBox="0 0 219.0 102.0" width="219" height="102"><title>Isotone Graphics Suite</title><defs><clipPath id="isotone-wm-F2F2F3-l0"><circle cx="7.92" cy="22.75" r="6.48"/></clipPath><clipPath id="isotone-wm-F2F2F3-l1"><circle cx="4.03" cy="29.49" r="6.48"/></clipPath><clipPath id="isotone-wm-F2F2F3-l2"><circle cx="11.80" cy="29.49" r="6.48"/></clipPath></defs><path d="M6.090000000000001 66.0V34.506H14.152000000000001V66.0ZM1.6820000000000002 40.538V34.506H14.152000000000001V40.538ZM33.358000000000004 66.986Q26.833000000000002 66.986 23.164500000000004 64.2455Q19.496000000000002 61.505 19.293000000000003 56.632999999999996H26.543Q26.717000000000002 58.257 28.3555 59.576499999999996Q29.994 60.896 33.474000000000004 60.896Q36.345 60.896 38.0705 59.852000000000004Q39.79600000000001 58.808 39.79600000000001 57.039Q39.79600000000001 55.473 38.49100000000001 54.545Q37.18600000000001 53.617 34.025000000000006 53.298L31.241 53.007999999999996Q25.963 52.457 23.121000000000002 50.0065Q20.279000000000003 47.556 20.279000000000003 43.525Q20.279000000000003 40.277 21.903000000000002 38.073Q23.527 35.869 26.398000000000003 34.7235Q29.269000000000002 33.577999999999996 32.981 33.577999999999996Q38.81 33.577999999999996 42.406000000000006 36.144499999999994Q46.002 38.711 46.176 43.641H38.926Q38.781000000000006 41.988 37.28750000000001 40.828Q35.794000000000004 39.668 32.923 39.668Q30.400000000000002 39.668 28.993500000000004 40.653999999999996Q27.587000000000003 41.64 27.587000000000003 43.235Q27.587000000000003 44.714 28.718000000000004 45.525999999999996Q29.849000000000004 46.337999999999994 32.401 46.628L35.185 46.918Q40.753 47.498 43.9285 49.992Q47.104 52.486 47.104 56.748999999999995Q47.104 59.852 45.393 62.1575Q43.682 64.463 40.593500000000006 65.7245Q37.505 66.986 33.358000000000004 66.986ZM67.38300000000001 67.102Q63.236000000000004 67.102 60.04600000000001 65.768Q56.85600000000001 64.434 54.65200000000001 62.1575Q52.44800000000001 59.881 51.31700000000001 56.981Q50.18600000000001 54.081 50.18600000000001 50.92V49.702Q50.18600000000001 46.483000000000004 51.36050000000001 43.539500000000004Q52.53500000000001 40.596000000000004 54.76800000000001 38.319500000000005Q57.001000000000005 36.043 60.191 34.7235Q63.38100000000001 33.403999999999996 67.38300000000001 33.403999999999996Q71.41400000000002 33.403999999999996 74.58950000000002 34.7235Q77.76500000000001 36.043 79.99800000000002 38.319500000000005Q82.23100000000001 40.596000000000004 83.40550000000002 43.539500000000004Q84.58000000000001 46.483000000000004 84.58000000000001 49.702V50.92Q84.58000000000001 54.081 83.44900000000001 56.981Q82.31800000000001 59.881 80.114 62.1575Q77.91000000000001 64.434 74.72 65.768Q71.53 67.102 67.38300000000001 67.102ZM67.38300000000001 60.2Q70.34100000000001 60.2 72.37100000000001 58.9095Q74.40100000000001 57.619 75.4595 55.3715Q76.518 53.123999999999995 76.518 50.311Q76.518 47.411 75.4305 45.1635Q74.343 42.916 72.2985 41.611Q70.254 40.306 67.38300000000001 40.306Q64.54100000000001 40.306 62.48200000000001 41.611Q60.42300000000001 42.916 59.33550000000001 45.1635Q58.248000000000005 47.411 58.248000000000005 50.311Q58.248000000000005 53.123999999999995 59.30650000000001 55.3715Q60.36500000000001 57.619 62.40950000000001 58.9095Q64.45400000000001 60.2 67.38300000000001 60.2ZM103.81500000000001 66.406Q99.46500000000002 66.406 96.65200000000002 65.275Q93.83900000000001 64.144 92.46150000000002 61.4615Q91.08400000000002 58.778999999999996 91.08400000000002 54.197L91.11300000000001 25.631999999999998H98.65300000000002L98.62400000000001 54.69Q98.62400000000001 57.01 99.87100000000001 58.257Q101.11800000000001 59.504 103.43800000000002 59.504H108.36800000000001V66.406ZM86.09600000000002 40.422V34.506H108.36800000000001V40.422ZM128.76300000000003 67.102Q124.61600000000001 67.102 121.42600000000002 65.768Q118.23600000000002 64.434 116.03200000000001 62.1575Q113.82800000000002 59.881 112.69700000000002 56.981Q111.56600000000002 54.081 111.56600000000002 50.92V49.702Q111.56600000000002 46.483000000000004 112.74050000000003 43.539500000000004Q113.91500000000002 40.596000000000004 116.14800000000002 38.319500000000005Q118.38100000000001 36.043 121.57100000000003 34.7235Q124.76100000000002 33.403999999999996 128.76300000000003 33.403999999999996Q132.794 33.403999999999996 135.9695 34.7235Q139.145 36.043 141.37800000000001 38.319500000000005Q143.61100000000002 40.596000000000004 144.7855 43.539500000000004Q145.96000000000004 46.483000000000004 145.96000000000004 49.702V50.92Q145.96000000000004 54.081 144.82900000000004 56.981Q143.69800000000004 59.881 141.49400000000003 62.1575Q139.29000000000002 64.434 136.10000000000002 65.768Q132.91000000000003 67.102 128.76300000000003 67.102ZM128.76300000000003 60.2Q131.721 60.2 133.751 58.9095Q135.781 57.619 136.83950000000002 55.3715Q137.89800000000002 53.123999999999995 137.89800000000002 50.311Q137.89800000000002 47.411 136.81050000000002 45.1635Q135.723 42.916 133.6785 41.611Q131.63400000000001 40.306 128.76300000000003 40.306Q125.92100000000002 40.306 123.86200000000002 41.611Q121.80300000000001 42.916 120.71550000000002 45.1635Q119.62800000000001 47.411 119.62800000000001 50.311Q119.62800000000001 53.123999999999995 120.68650000000002 55.3715Q121.74500000000002 57.619 123.78950000000002 58.9095Q125.83400000000002 60.2 128.76300000000003 60.2ZM151.536 66.0V34.506H157.916V48.019999999999996H157.336Q157.336 43.235 158.59750000000003 40.016Q159.859 36.797 162.3965 35.1585Q164.934 33.519999999999996 168.675 33.519999999999996H169.02300000000002Q174.678 33.519999999999996 177.578 37.159499999999994Q180.478 40.799 180.478 47.991V66.0H172.416V47.266Q172.416 44.366 170.7485 42.568Q169.08100000000002 40.769999999999996 166.181 40.769999999999996Q163.223 40.769999999999996 161.4105 42.6115Q159.598 44.453 159.598 47.498V66.0ZM201.714 67.102Q197.65400000000002 67.102 194.60900000000004 65.71000000000001Q191.56400000000002 64.318 189.56300000000002 61.9835Q187.562 59.649 186.54700000000003 56.749Q185.532 53.849000000000004 185.532 50.804V49.702Q185.532 46.57 186.54700000000003 43.6555Q187.562 40.741 189.54850000000002 38.4355Q191.53500000000003 36.129999999999995 194.50750000000002 34.766999999999996Q197.48000000000002 33.403999999999996 201.366 33.403999999999996Q206.47000000000003 33.403999999999996 209.90650000000002 35.6515Q213.34300000000002 37.899 215.09750000000003 41.5095Q216.852 45.12 216.852 49.296V52.225H188.954V47.295H211.77700000000002L209.312 49.702Q209.312 46.686 208.4275 44.54Q207.543 42.394 205.7885 41.233999999999995Q204.03400000000002 40.074 201.366 40.074Q198.669 40.074 196.81300000000002 41.3065Q194.95700000000002 42.539 194.0145 44.8155Q193.072 47.092 193.072 50.282Q193.072 53.269 193.9855 55.56Q194.899 57.851 196.813 59.1415Q198.727 60.432 201.714 60.432Q204.643 60.432 206.49900000000002 59.243Q208.35500000000002 58.054 208.877 56.343H216.30100000000002Q215.63400000000001 59.562 213.6475 61.998Q211.661 64.434 208.6305 65.768Q205.60000000000002 67.102 201.714 67.102Z" fill="#F2F2F3"/><circle cx="7.92" cy="22.75" r="6.48" fill="#29C5E6"/><circle cx="4.03" cy="29.49" r="6.48" fill="#F5923E"/><circle cx="11.80" cy="29.49" r="6.48" fill="#4CC47A"/><g clip-path="url(#isotone-wm-F2F2F3-l0)"><circle cx="4.03" cy="29.49" r="6.48" fill="#F7E6EC"/></g><g clip-path="url(#isotone-wm-F2F2F3-l1)"><circle cx="11.80" cy="29.49" r="6.48" fill="#F8E69A"/></g><g clip-path="url(#isotone-wm-F2F2F3-l0)"><circle cx="11.80" cy="29.49" r="6.48" fill="#69F2F2"/></g><g clip-path="url(#isotone-wm-F2F2F3-l0)"><g clip-path="url(#isotone-wm-F2F2F3-l1)"><circle cx="11.80" cy="29.49" r="6.48" fill="#F9F9F5"/></g></g><path d="M32.81600000000002 96.222Q31.74200000000002 96.222 30.89900000000002 95.8665Q30.05600000000002 95.511 29.469500000000018 94.884Q28.88300000000002 94.257 28.57400000000002 93.43350000000001Q28.26500000000002 92.61 28.26500000000002 91.68299999999999V91.419Q28.26500000000002 90.585 28.55450000000002 89.79599999999999Q28.84400000000002 89.007 29.40200000000002 88.3725Q29.96000000000002 87.738 30.773000000000017 87.366Q31.58600000000002 86.994 32.624000000000024 86.994Q33.74600000000002 86.994 34.61750000000002 87.41550000000001Q35.48900000000002 87.837 36.01700000000002 88.587Q36.545000000000016 89.337 36.63200000000002 90.324H35.17400000000002Q35.09300000000002 89.676 34.72700000000002 89.232Q34.36100000000002 88.788 33.81500000000002 88.55699999999999Q33.26900000000002 88.326 32.624000000000024 88.326Q31.97600000000002 88.326 31.44050000000002 88.55699999999999Q30.90500000000002 88.788 30.52400000000002 89.21549999999999Q30.14300000000002 89.643 29.93600000000002 90.237Q29.72900000000002 90.831 29.72900000000002 91.563Q29.72900000000002 92.376 29.952500000000022 93.003Q30.17600000000002 93.63 30.584000000000017 94.056Q30.99200000000002 94.482 31.56050000000002 94.701Q32.12900000000002 94.92 32.81600000000002 94.92Q33.76700000000002 94.92 34.482500000000016 94.5315Q35.19800000000002 94.143 35.54900000000002 93.519L35.18300000000002 94.92V92.49H36.52100000000002V94.506Q35.94200000000002 95.319 34.99550000000002 95.7705Q34.04900000000002 96.222 32.81600000000002 96.222ZM32.52200000000002 92.778V91.65H37.25900000000002V92.778ZM43.30700000000002 96.0V87.186H44.74700000000002V96.0ZM48.68600000000002 96.0 45.89300000000002 92.145H47.53400000000002L50.39900000000002 96.0ZM44.273000000000025 92.952V91.74H46.56200000000002Q47.075000000000024 91.74 47.444000000000024 91.53Q47.813000000000024 91.32 48.01550000000002 90.94649999999999Q48.21800000000002 90.573 48.21800000000002 90.09Q48.21800000000002 89.604 48.01550000000002 89.2305Q47.813000000000024 88.857 47.444000000000024 88.6425Q47.075000000000024 88.428 46.56200000000002 88.428H44.273000000000025V87.186H46.36700000000002Q47.37200000000002 87.186 48.11900000000002 87.48750000000001Q48.86600000000002 87.789 49.27400000000002 88.4055Q49.68200000000002 89.022 49.68200000000002 89.979V90.171Q49.68200000000002 91.128 49.26800000000002 91.7415Q48.85400000000002 92.355 48.11300000000002 92.65350000000001Q47.37200000000002 92.952 46.36700000000002 92.952ZM55.42700000000003 96.0 58.49600000000002 87.24H60.88400000000003L64.04900000000002 96.0H62.56400000000002L59.79500000000002 88.206L60.386000000000024 88.482H58.928000000000026L59.54900000000002 88.206L56.867000000000026 96.0ZM57.413000000000025 93.531 57.87800000000002 92.283H61.544000000000025L62.00900000000003 93.531ZM71.20700000000002 93.132V91.878H73.03400000000002Q73.60400000000001 91.878 73.98500000000001 91.65299999999999Q74.36600000000001 91.428 74.56550000000001 91.038Q74.76500000000001 90.648 74.76500000000001 90.159Q74.76500000000001 89.658 74.56550000000001 89.268Q74.36600000000001 88.878 73.98500000000001 88.65899999999999Q73.60400000000001 88.44 73.03400000000002 88.44H71.20700000000002V87.186H72.85700000000001Q73.94900000000001 87.186 74.69900000000001 87.537Q75.44900000000001 87.888 75.83900000000001 88.533Q76.22900000000001 89.178 76.22900000000001 90.063V90.255Q76.22900000000001 91.128 75.83900000000001 91.7775Q75.44900000000001 92.427 74.69900000000001 92.77950000000001Q73.94900000000001 93.132 72.85700000000001 93.132ZM70.00700000000002 96.0V87.186H71.44700000000002V96.0ZM88.13300000000001 96.0V87.24H89.57300000000001V96.0ZM82.29500000000002 96.0V87.24H83.73500000000001V96.0ZM83.45900000000002 92.268V90.99H88.40900000000002V92.268ZM96.45500000000001 96.0V87.24H97.89500000000001V96.0ZM108.64700000000002 96.222Q107.45000000000002 96.222 106.60250000000002 95.8035Q105.75500000000001 95.385 105.23000000000002 94.7115Q104.70500000000001 94.038 104.459 93.25049999999999Q104.21300000000001 92.463 104.21300000000001 91.728V91.464Q104.21300000000001 90.663 104.465 89.86949999999999Q104.71700000000001 89.076 105.24350000000001 88.428Q105.77000000000001 87.78 106.60100000000001 87.387Q107.43200000000002 86.994 108.57800000000002 86.994Q109.76000000000002 86.994 110.62250000000002 87.4125Q111.48500000000001 87.831 111.995 88.58250000000001Q112.50500000000001 89.334 112.61000000000001 90.348H111.15200000000002Q111.05900000000001 89.676 110.70200000000001 89.22749999999999Q110.34500000000001 88.779 109.80050000000001 88.5525Q109.25600000000001 88.326 108.57800000000002 88.326Q107.86400000000002 88.326 107.31950000000002 88.5735Q106.77500000000002 88.821 106.412 89.268Q106.049 89.715 105.863 90.309Q105.677 90.903 105.677 91.608Q105.677 92.286 105.863 92.88Q106.049 93.474 106.424 93.92699999999999Q106.799 94.38 107.35400000000001 94.63499999999999Q107.90900000000002 94.89 108.64700000000002 94.89Q109.70300000000002 94.89 110.42450000000002 94.36500000000001Q111.14600000000002 93.84 111.302 92.868H112.76000000000002Q112.64300000000001 93.789 112.14050000000002 94.551Q111.63800000000002 95.313 110.76050000000001 95.7675Q109.88300000000001 96.222 108.64700000000002 96.222ZM121.74800000000002 96.222Q120.62300000000002 96.222 119.83850000000001 95.856Q119.05400000000002 95.49 118.64150000000001 94.84649999999999Q118.22900000000001 94.203 118.22900000000001 93.384H119.65100000000002Q119.65100000000002 93.759 119.85200000000003 94.12049999999999Q120.05300000000003 94.482 120.51350000000002 94.71600000000001Q120.97400000000002 94.95 121.74800000000002 94.95Q122.45900000000002 94.95 122.91950000000003 94.7445Q123.38000000000002 94.539 123.60350000000003 94.20150000000001Q123.82700000000003 93.864 123.82700000000003 93.456Q123.82700000000003 92.955 123.39500000000002 92.637Q122.96300000000002 92.319 122.09600000000002 92.241L121.22600000000003 92.166Q120.01400000000002 92.064 119.29100000000003 91.413Q118.56800000000003 90.762 118.56800000000003 89.694Q118.56800000000003 88.875 118.96100000000001 88.27199999999999Q119.35400000000001 87.669 120.05900000000003 87.3315Q120.76400000000002 86.994 121.70600000000002 86.994Q122.66000000000003 86.994 123.36950000000002 87.336Q124.07900000000002 87.678 124.47050000000002 88.29599999999999Q124.86200000000002 88.914 124.86200000000002 89.76H123.44000000000003Q123.44000000000003 89.373 123.25550000000003 89.03399999999999Q123.07100000000003 88.695 122.68850000000003 88.4805Q122.30600000000003 88.266 121.70600000000002 88.266Q121.13000000000002 88.266 120.74900000000002 88.4655Q120.36800000000002 88.665 120.17900000000003 88.9905Q119.99000000000002 89.316 119.99000000000002 89.694Q119.99000000000002 90.138 120.32600000000002 90.477Q120.66200000000002 90.816 121.35200000000002 90.873L122.22200000000002 90.948Q123.14300000000001 91.023 123.82250000000002 91.338Q124.50200000000002 91.653 124.87550000000002 92.1825Q125.24900000000002 92.712 125.24900000000002 93.456Q125.24900000000002 94.272 124.81550000000001 94.899Q124.38200000000002 95.526 123.59450000000001 95.874Q122.80700000000002 96.222 121.74800000000002 96.222ZM141.596 96.222Q140.471 96.222 139.68650000000002 95.856Q138.90200000000002 95.49 138.48950000000002 94.84649999999999Q138.077 94.203 138.077 93.384H139.499Q139.499 93.759 139.7 94.12049999999999Q139.901 94.482 140.3615 94.71600000000001Q140.822 94.95 141.596 94.95Q142.30700000000002 94.95 142.7675 94.7445Q143.228 94.539 143.4515 94.20150000000001Q143.675 93.864 143.675 93.456Q143.675 92.955 143.243 92.637Q142.811 92.319 141.94400000000002 92.241L141.074 92.166Q139.862 92.064 139.139 91.413Q138.416 90.762 138.416 89.694Q138.416 88.875 138.809 88.27199999999999Q139.202 87.669 139.90699999999998 87.3315Q140.612 86.994 141.554 86.994Q142.508 86.994 143.2175 87.336Q143.927 87.678 144.3185 88.29599999999999Q144.71 88.914 144.71 89.76H143.288Q143.288 89.373 143.1035 89.03399999999999Q142.919 88.695 142.5365 88.4805Q142.154 88.266 141.554 88.266Q140.978 88.266 140.597 88.4655Q140.216 88.665 140.027 88.9905Q139.838 89.316 139.838 89.694Q139.838 90.138 140.17399999999998 90.477Q140.51 90.816 141.20000000000002 90.873L142.07 90.948Q142.991 91.023 143.6705 91.338Q144.35 91.653 144.7235 92.1825Q145.097 92.712 145.097 93.456Q145.097 94.272 144.6635 94.899Q144.23000000000002 95.526 143.4425 95.874Q142.655 96.222 141.596 96.222ZM154.904 96.222Q153.698 96.222 152.873 95.7585Q152.048 95.295 151.6235 94.455Q151.199 93.615 151.199 92.493V87.24H152.639V92.613Q152.639 93.291 152.9 93.8055Q153.161 94.32 153.668 94.60499999999999Q154.175 94.89 154.904 94.89Q155.633 94.89 156.1355 94.6095Q156.638 94.329 156.8975 93.816Q157.157 93.303 157.157 92.613V87.24H158.597V92.493Q158.597 93.615 158.17849999999999 94.455Q157.76 95.295 156.9395 95.7585Q156.119 96.222 154.904 96.222ZM165.31099999999998 96.0V87.24H166.75099999999998V96.0ZM175.343 96.0V88.278H176.783V96.0ZM172.745 88.518V87.24H179.381V88.518ZM185.35099999999997 96.0V87.24H186.773V96.0ZM186.533 96.0V94.752H190.64299999999997V96.0ZM186.533 92.172V90.924H190.301V92.172ZM186.533 88.488V87.24H190.535V88.488Z" fill="#A6A7AD"/></svg>
