<svg fill="none" height="24" viewBox="0 0 24 24" width="24" xmlns="http://www.w3.org/2000/svg">
  <defs>
    <linearGradient id="isotone-gradient" x1="0%" y1="0%" x2="100%" y2="100%">
      <stop offset="0%" style="stop-color:#00D9FF;stop-opacity:1" />
      <stop offset="100%" style="stop-color:#00FF88;stop-opacity:1" />
    </linearGradient>
  </defs>
  <g fill="url(#isotone-gradient)">
    <path clip-rule="evenodd" d="m12.7712 5.04198c-1.2919-.14261-2.598.07714-3.77211.63464-1.17413.55751-2.16993 1.43077-2.87596 2.52206-.70603 1.09128-1.09442 2.35752-1.12171 3.65702s.30761 2.5809.96721 3.7008c.28027.4759.12169 1.0889-.3542 1.3692-.47588.2803-1.08887.1217-1.36914-.3542-.84797-1.4398-1.27851-3.0872-1.24343-4.7578s.5344-3.29848 1.44206-4.70142c.90767-1.40295 2.18787-2.52561 3.69731-3.24233 1.50945-.71673 3.18857-.99923 4.84947-.8159.5489.0606.9448.55473.8842 1.10369-.0606.54895-.5547.94483-1.1037.88424zm5.6143 2.03237c.4759-.28027 1.0889-.12169 1.3691.35419.848 1.43982 1.2785 3.08726 1.2435 4.75776-.0351 1.6706-.5344 3.2985-1.4421 4.7015-.9077 1.4029-2.1879 2.5256-3.6973 3.2423-1.5095.7167-3.1886.9992-4.8495.8159-.5489-.0606-.9448-.5548-.8842-1.1037.0606-.549.5547-.9448 1.1037-.8842 1.2919.1426 2.598-.0772 3.7721-.6347 1.1742-.5575 2.17-1.4308 2.876-2.522.706-1.0913 1.0944-2.3576 1.1217-3.657.0273-1.2995-.3076-2.58095-.9672-3.70091-.2803-.47588-.1217-1.08887.3542-1.36914z" fill-rule="evenodd"></path>
    <path d="m16.2428 7.75723c.781.78105 2.0473.78105 2.8284 0 .781-.78105.781-2.04738 0-2.82843-.7811-.78104-2.0474-.78104-2.8284 0-.7811.78105-.7811 2.04738 0 2.82843z"></path>
    <path clip-rule="evenodd" d="m18.3641 5.63591c-.3905-.39052-1.0237-.39052-1.4142 0-.3905.39053-.3905 1.02369 0 1.41421.3905.39053 1.0237.39053 1.4142 0 .3905-.39052.3905-1.02368 0-1.41421zm-2.8284-1.41421c1.1715-1.17158 3.071-1.17158 4.2426 0 1.1716 1.17157 1.1716 3.07106 0 4.24264-1.1716 1.17157-3.0711 1.17157-4.2426 0-1.1716-1.17157-1.1716-3.07107 0-4.24264z" fill-rule="evenodd"></path>
    <path d="m4.9288 19.0712c.78105.781 2.04738.781 2.82843 0 .78105-.7811.78105-2.0474 0-2.8284-.78105-.7811-2.04738-.7811-2.82843 0-.78104.781-.78104 2.0473 0 2.8284z"></path>
    <path clip-rule="evenodd" d="m7.05012 16.9499c-.39052-.3905-1.02368-.3905-1.41421 0-.39052.3905-.39052 1.0237 0 1.4142.39053.3905 1.02369.3905 1.41421 0 .39053-.3905.39053-1.0237 0-1.4142zm-2.82842-1.4142c1.17157-1.1716 3.07106-1.1716 4.24264 0 1.17157 1.1715 1.17157 3.071 0 4.2426s-3.07107 1.1716-4.24264 0c-1.17158-1.1716-1.17158-3.0711 0-4.2426z" fill-rule="evenodd"></path>
    <path d="m10.5858 13.4142c.781.7811 2.0474.7811 2.8284 0 .7811-.781.7811-2.0474 0-2.8284-.781-.78106-2.0474-.78106-2.8284 0-.78106.781-.78106 2.0474 0 2.8284z"></path>
    <path clip-rule="evenodd" d="m12.7071 11.2929c-.3905-.3905-1.0237-.3905-1.4142 0s-.3905 1.0237 0 1.4142 1.0237.3905 1.4142 0 .3905-1.0237 0-1.4142zm-2.82842-1.41422c1.17162-1.17157 3.07102-1.17157 4.24262 0 1.1716 1.17162 1.1716 3.07102 0 4.24262s-3.071 1.1716-4.24262 0c-1.17157-1.1716-1.17157-3.071 0-4.24262z" fill-rule="evenodd"></path>
  </g>
</svg>